<svg width="759" height="1054" viewBox="0 0 759 1054" fill="none" xmlns="http://www.w3.org/2000/svg">
<circle cx="477.303" cy="481.33" r="120.25" stroke="#4F9CF9" stroke-width="2" stroke-dasharray="15 15"/>
<g filter="url(#filter0_f_745_7435)">
<ellipse cx="264.022" cy="218.855" rx="264.022" ry="218.855" transform="matrix(0.00904133 0.999959 -0.999963 0.00855709 698.694 261.5)" fill="#007041" fill-opacity="0.5"/>
</g>
<circle cx="391.562" cy="602.58" r="120.25" stroke="#4F9CF9" stroke-width="2" stroke-dasharray="15 15"/>
<circle cx="573.438" cy="602.58" r="120.25" stroke="#4F9CF9" stroke-width="2" stroke-dasharray="15 15"/>
<circle cx="597.688" cy="483.928" r="30.3125" fill="white"/>
<g clip-path="url(#clip0_745_7435)">
<path d="M592.816 484.994C590.718 484.994 589.011 486.702 589.011 488.8V498.31C589.011 500.409 590.718 502.116 592.816 502.116C594.915 502.116 596.622 500.409 596.622 498.31V488.8C596.622 486.702 594.915 484.994 592.816 484.994Z" fill="#FF4340"/>
<path d="M586.879 484.993H583.195C581.163 484.993 579.511 486.646 579.511 488.678C579.511 490.709 581.163 492.362 583.195 492.362C585.227 492.362 586.879 490.709 586.879 488.678V484.993Z" fill="#FF4340"/>
<path d="M579.501 479.057C579.501 481.155 581.208 482.862 583.307 482.862H592.817C594.915 482.862 596.623 481.155 596.623 479.057C596.623 476.958 594.915 475.251 592.817 475.251H583.307C581.208 475.251 579.501 476.958 579.501 479.057V479.057Z" fill="#36C6FF"/>
<path d="M592.939 473.119H596.624V469.435C596.624 467.403 594.971 465.75 592.939 465.75C590.908 465.75 589.255 467.403 589.255 469.435C589.255 471.466 590.908 473.119 592.939 473.119Z" fill="#36C6FF"/>
<path d="M602.56 482.862C604.659 482.862 606.366 481.155 606.366 479.057V469.546C606.366 467.448 604.659 465.74 602.56 465.74C600.462 465.74 598.755 467.448 598.755 469.546V479.056C598.755 481.155 600.462 482.862 602.56 482.862Z" fill="#0DC46E"/>
<path d="M608.497 482.863H612.181C614.213 482.863 615.866 481.21 615.866 479.179C615.866 477.147 614.213 475.494 612.181 475.494C610.15 475.494 608.497 477.147 608.497 479.179V482.863Z" fill="#0DC46E"/>
<path d="M615.877 488.799C615.877 486.701 614.169 484.993 612.071 484.993H602.56C600.462 484.993 598.755 486.701 598.755 488.799C598.755 490.898 600.462 492.605 602.56 492.605H612.071C614.169 492.605 615.877 490.898 615.877 488.799Z" fill="#FDCB02"/>
<path d="M602.439 494.737H598.755V498.421C598.755 500.453 600.408 502.105 602.439 502.105C604.471 502.105 606.124 500.452 606.124 498.421C606.124 496.389 604.471 494.737 602.439 494.737Z" fill="#FDCB02"/>
</g>
<circle cx="270.312" cy="593.053" r="30.3125" fill="white"/>
<g clip-path="url(#clip1_745_7435)">
<path d="M287.363 582.824H271.449C270.822 582.824 270.312 583.333 270.312 583.96C270.312 584.588 270.822 585.097 271.449 585.097H284.051L277.067 590.528L272.058 587.343L270.84 589.262L276.523 592.877C276.708 592.995 276.921 593.054 277.133 593.054C277.378 593.054 277.626 592.975 277.831 592.815L286.226 586.284V601.011H271.449C270.822 601.011 270.312 601.52 270.312 602.148C270.312 602.775 270.822 603.285 271.449 603.285H287.363C287.991 603.285 288.5 602.775 288.5 602.148V583.96C288.5 583.333 287.991 582.824 287.363 582.824Z" fill="#1976D2"/>
<path d="M272.174 576.264C271.915 576.048 271.567 575.955 271.24 576.023L253.052 579.434C252.514 579.534 252.125 580.002 252.125 580.55V605.558C252.125 606.103 252.514 606.574 253.052 606.674L271.24 610.084C271.308 610.098 271.379 610.105 271.449 610.105C271.713 610.105 271.97 610.014 272.174 609.843C272.436 609.627 272.586 609.304 272.586 608.968V577.14C272.586 576.801 272.436 576.48 272.174 576.264Z" fill="#2196F3"/>
<path d="M262.355 601.011C259.223 601.011 256.672 597.951 256.672 594.191C256.672 590.431 259.223 587.371 262.355 587.371C265.488 587.371 268.039 590.431 268.039 594.191C268.039 597.951 265.488 601.011 262.355 601.011ZM262.355 589.644C260.475 589.644 258.945 591.683 258.945 594.191C258.945 596.699 260.475 598.738 262.355 598.738C264.235 598.738 265.766 596.699 265.766 594.191C265.766 591.683 264.235 589.644 262.355 589.644Z" fill="#FAFAFA"/>
</g>
<circle cx="694.688" cy="593.053" r="30.3125" fill="white"/>
<g clip-path="url(#clip2_745_7435)">
<path d="M694.656 586.358L687.106 599.452H687.085L691.457 604.783L681.647 608.899C681.455 608.793 681.306 608.643 681.221 608.494L676.614 599.964C676.379 599.494 676.571 599.132 676.635 598.919L688.983 577.593C689.068 577.465 689.196 577.337 689.367 577.23H689.388L695.722 579.192L694.656 586.358Z" fill="#59C36A"/>
<path d="M712.875 599.452L704.323 604.783L702.297 599.452L694.655 586.357L689.387 577.23C689.536 577.123 689.728 577.059 689.899 577.059H699.482C699.695 577.123 700.121 577.102 700.399 577.592L712.747 598.918C712.832 599.068 712.875 599.26 712.875 599.452Z" fill="#FFDA2D"/>
<path d="M700.399 577.593C700.122 577.103 699.695 577.124 699.482 577.06H694.655V586.358L702.297 599.453L704.323 604.784L712.875 599.453C712.875 599.26 712.832 599.069 712.747 598.919L700.399 577.593Z" fill="#FDBF00"/>
<path d="M712.876 599.452C712.876 599.644 712.833 599.836 712.769 599.963L708.162 608.494C707.992 608.771 707.587 609.048 707.224 609.048H682.159C681.988 609.048 681.796 608.984 681.647 608.899L687.085 599.452H712.876Z" fill="#4086F4"/>
<path d="M694.655 609.048H707.223C707.586 609.048 707.991 608.771 708.161 608.494L712.768 599.963C712.832 599.836 712.875 599.644 712.875 599.452H694.655V609.048H694.655Z" fill="#4175DF"/>
</g>
<circle cx="356.053" cy="483.928" r="30.3125" fill="white"/>
<g clip-path="url(#clip3_745_7435)">
<path d="M345.012 492.956V490.033L349.949 492.891L356.055 487.175V500.166L345.012 492.956Z" fill="#0093EB"/>
<path d="M339.1 485.227L345.531 479.381L356.054 485.877L349.948 491.593L339.1 485.227Z" fill="#0093EB"/>
<path d="M345.53 479.381L337.866 473.535L348.908 467.689L356.703 472.885L345.53 479.381Z" fill="#0093EB"/>
<path d="M367.096 493.021L356.053 500.166V487.175L362.354 492.631L367.096 489.643V493.021Z" fill="#0093EB"/>
<path d="M362.354 491.332L356.053 485.876L366.641 479.12L373.007 484.577L362.354 491.332Z" fill="#0093EB"/>
<path d="M366.642 479.121L356.704 472.885L364.498 467.689L374.242 473.535L366.642 479.121Z" fill="#0093EB"/>
</g>
<circle cx="482.5" cy="678.794" r="30.3125" fill="white"/>
<g clip-path="url(#clip4_745_7435)">
<path d="M497.447 671.406H467.609C467.019 671.406 466.543 670.929 466.543 670.34V663.804C466.543 662.041 467.977 660.607 469.74 660.607H495.316C497.079 660.607 498.513 662.041 498.513 663.804V670.34C498.513 670.929 498.036 671.406 497.447 671.406Z" fill="#E3E7EA"/>
<path d="M495.317 660.607H482.529V671.406H497.448C498.038 671.406 498.514 670.929 498.514 670.34V663.804C498.514 662.041 497.08 660.607 495.317 660.607Z" fill="#BABAC0"/>
<path d="M466.503 683.129C466.503 683.127 466.503 683.126 466.503 683.126L464.383 673.026C464.234 672.067 464.49 671.108 465.087 670.404C465.705 669.68 466.6 669.275 467.538 669.275H497.462C498.399 669.275 499.295 669.68 499.913 670.404C500.51 671.108 500.765 672.067 500.616 672.983L498.496 683.131L500.616 693.231C500.765 694.19 500.51 695.15 499.913 695.853C499.295 696.577 498.4 696.982 497.462 696.982H467.538C466.6 696.982 465.705 696.577 465.087 695.853C464.49 695.149 464.234 694.19 464.383 693.274C464.383 693.274 466.466 683.304 466.503 683.129Z" fill="#4086F4"/>
<path d="M466.503 683.126C466.503 683.126 466.503 683.127 466.503 683.129H498.497L500.616 672.983C500.765 672.067 500.51 671.108 499.913 670.404C499.295 669.68 498.4 669.275 497.462 669.275H467.538C466.6 669.275 465.705 669.68 465.087 670.404C464.49 671.108 464.234 672.067 464.383 673.026L466.503 683.126Z" fill="#4175DF"/>
<path d="M471.843 667.001C472.431 667.001 472.909 666.524 472.909 665.935C472.909 665.347 472.431 664.87 471.843 664.87C471.254 664.87 470.777 665.347 470.777 665.935C470.777 666.524 471.254 667.001 471.843 667.001Z" fill="#FFF5F5"/>
<path d="M493.157 667.001C493.746 667.001 494.223 666.524 494.223 665.935C494.223 665.347 493.746 664.87 493.157 664.87C492.569 664.87 492.092 665.347 492.092 665.935C492.092 666.524 492.569 667.001 493.157 667.001Z" fill="#E3E7EA"/>
<path d="M478.237 690.588C476.434 690.588 474.818 689.446 474.218 687.746C474.021 687.191 474.311 686.582 474.867 686.387C475.42 686.189 476.031 686.481 476.226 687.036C476.527 687.885 477.335 688.457 478.237 688.457C479.412 688.457 480.368 687.5 480.368 686.325C480.368 685.15 479.412 684.194 478.237 684.194H476.912C476.324 684.194 475.846 683.717 475.846 683.128C475.846 682.539 476.324 682.062 476.912 682.062H478.237C479.412 682.062 480.368 681.106 480.368 679.931C480.368 678.756 479.412 677.8 478.237 677.8C477.335 677.8 476.527 678.371 476.226 679.22C476.03 679.776 475.419 680.067 474.867 679.87C474.311 679.674 474.021 679.065 474.218 678.511C474.818 676.81 476.434 675.668 478.237 675.668C480.588 675.668 482.499 677.58 482.499 679.931C482.499 681.203 481.94 682.347 481.053 683.128C481.94 683.91 482.499 685.053 482.499 686.325C482.499 688.676 480.588 690.588 478.237 690.588Z" fill="#FFF5F5"/>
<path d="M474.867 679.87C475.419 680.067 476.03 679.776 476.226 679.22C476.527 678.371 477.336 677.8 478.237 677.8C479.412 677.8 480.368 678.756 480.368 679.931C480.368 681.106 479.412 682.062 478.237 682.062H476.912C476.324 682.062 475.846 682.539 475.846 683.128H481.053C481.94 682.346 482.499 681.203 482.499 679.931C482.499 677.58 480.588 675.668 478.237 675.668C476.434 675.668 474.818 676.81 474.218 678.511C474.021 679.065 474.311 679.674 474.867 679.87Z" fill="#E3E7EA"/>
<path d="M488.894 690.588C488.305 690.588 487.828 690.111 487.828 689.522V678.725L486.288 679.752C485.797 680.077 485.136 679.946 484.81 679.456C484.483 678.966 484.615 678.305 485.106 677.979L488.303 675.847C488.629 675.63 489.051 675.609 489.396 675.794C489.743 675.98 489.959 676.341 489.959 676.734V689.522C489.959 690.111 489.483 690.588 488.894 690.588Z" fill="#FFF5F5"/>
<path d="M486.288 679.752L487.828 678.725V683.128H489.959V676.734C489.959 676.341 489.743 675.979 489.396 675.794C489.051 675.609 488.629 675.63 488.303 675.847L485.106 677.979C484.615 678.305 484.483 678.966 484.81 679.456C485.136 679.946 485.797 680.077 486.288 679.752Z" fill="#E3E7EA"/>
</g>
<circle cx="479.902" cy="361.812" r="30.3125" fill="white"/>
<g clip-path="url(#clip5_745_7435)">
<path d="M493.543 348.172H466.262V375.453H493.543V348.172Z" fill="#ECEFF1"/>
<path d="M479.902 364.682L493.543 375.453V354.188L479.902 364.682Z" fill="#CFD8DC"/>
<path d="M494.68 348.172H493.543L479.902 358.943L466.262 348.172H465.125C463.242 348.172 461.715 349.7 461.715 351.582V372.043C461.715 373.925 463.242 375.453 465.125 375.453H466.262V354.187L479.902 364.679L493.543 354.185V375.453H494.68C496.562 375.453 498.09 373.925 498.09 372.043V351.582C498.09 349.7 496.562 348.172 494.68 348.172Z" fill="#F44336"/>
</g>
<circle cx="481.804" cy="563.287" r="43.3036" fill="white"/>
<path d="M455 553.231V562.456C455 565.266 458.374 566.764 460.436 564.798L470.276 555.572C472.432 553.559 471.026 550 468.074 550H458.233C456.453 550 455 551.452 455 553.231Z" fill="#5986EF"/>
<path d="M501.579 550H491.738C488.833 550 487.38 553.559 489.536 555.572L499.376 564.798C501.438 566.717 504.812 565.266 504.812 562.456V553.231C504.812 551.452 503.36 550 501.579 550Z" fill="#5986EF"/>
<path d="M482.132 572.524L499.376 588.727C501.438 590.647 504.812 589.195 504.812 586.385V577.067C504.812 576.177 504.437 575.334 503.781 574.725L482.132 554.355C480.867 553.184 478.945 553.184 477.68 554.355L456.031 574.725C455.375 575.334 455 576.177 455 577.067V586.385C455 589.195 458.374 590.693 460.436 588.727L477.68 572.524C478.945 571.354 480.867 571.354 482.132 572.524Z" fill="#5986EF"/>
<defs>
<filter id="filter0_f_745_7435" x="0.922241" y="0.914307" width="962.624" height="1052.94" filterUnits="userSpaceOnUse" color-interpolation-filters="sRGB">
<feFlood flood-opacity="0" result="BackgroundImageFix"/>
<feBlend mode="normal" in="SourceGraphic" in2="BackgroundImageFix" result="shape"/>
<feGaussianBlur stdDeviation="131.226" result="effect1_foregroundBlur_745_7435"/>
</filter>
<clipPath id="clip0_745_7435">
<rect width="36.375" height="36.375" fill="white" transform="translate(579.501 465.74)"/>
</clipPath>
<clipPath id="clip1_745_7435">
<rect width="36.375" height="36.375" fill="white" transform="translate(252.125 574.866)"/>
</clipPath>
<clipPath id="clip2_745_7435">
<rect width="36.375" height="36.375" fill="white" transform="translate(676.501 574.866)"/>
</clipPath>
<clipPath id="clip3_745_7435">
<rect width="36.375" height="36.375" fill="white" transform="translate(337.866 465.74)"/>
</clipPath>
<clipPath id="clip4_745_7435">
<rect width="36.375" height="36.375" fill="white" transform="translate(464.312 660.607)"/>
</clipPath>
<clipPath id="clip5_745_7435">
<rect width="36.375" height="36.375" fill="white" transform="translate(461.715 343.625)"/>
</clipPath>
</defs>
</svg>
