<svg width="264" height="26" viewBox="0 0 264 26" fill="none" xmlns="http://www.w3.org/2000/svg">
<path d="M15.136 1.2H21.8C22.0493 1.2 22.2647 1.29067 22.446 1.472C22.6273 1.65333 22.718 1.86867 22.718 2.118V24.082C22.718 24.3313 22.6273 24.5467 22.446 24.728C22.2647 24.9093 22.0493 25 21.8 25H15.136C14.8867 25 14.6713 24.9093 14.49 24.728C14.3087 24.5467 14.218 24.3313 14.218 24.082V16.738H8.71V24.082C8.71 24.3313 8.61933 24.5467 8.438 24.728C8.25667 24.9093 8.04133 25 7.792 25H1.128C0.878667 25 0.663333 24.9207 0.482 24.762C0.300667 24.5807 0.21 24.354 0.21 24.082V2.118C0.21 1.86867 0.300667 1.65333 0.482 1.472C0.663333 1.29067 0.878667 1.2 1.128 1.2H7.792C8.04133 1.2 8.25667 1.29067 8.438 1.472C8.61933 1.65333 8.71 1.86867 8.71 2.118V9.258H14.218V2.118C14.218 1.86867 14.3087 1.65333 14.49 1.472C14.6713 1.29067 14.8867 1.2 15.136 1.2ZM35.5837 1.2H42.9617C43.7777 1.2 44.2877 1.574 44.4917 2.322L52.0737 24.014C52.0964 24.082 52.1077 24.1953 52.1077 24.354C52.1077 24.49 52.0284 24.6373 51.8697 24.796C51.7337 24.932 51.5637 25 51.3597 25H45.0697C44.3897 25 43.9477 24.7167 43.7437 24.15L42.9277 21.906H35.6177L34.8017 24.15C34.5977 24.7167 34.1557 25 33.4757 25H27.1857C26.9817 25 26.8004 24.932 26.6417 24.796C26.5057 24.6373 26.4377 24.49 26.4377 24.354C26.4377 24.1953 26.4491 24.082 26.4717 24.014L34.0537 2.322C34.2577 1.574 34.7677 1.2 35.5837 1.2ZM37.3517 15.276H41.1937L39.2557 8.952L37.3517 15.276ZM63.993 10.244V15.956C63.993 17.792 64.8317 18.71 66.509 18.71C67.801 18.71 68.651 18.098 69.059 16.874C69.1724 16.4887 69.3084 16.228 69.467 16.092C69.6484 15.956 69.9317 15.888 70.317 15.888H77.253C77.457 15.888 77.627 15.9673 77.763 16.126C77.9217 16.262 78.001 16.432 78.001 16.636C78.001 18.608 77.4344 20.2627 76.301 21.6C74.2157 24.0933 70.963 25.34 66.543 25.34C63.075 25.34 60.3097 24.5807 58.247 23.062C56.1844 21.5207 55.153 19.1633 55.153 15.99V10.21C55.153 7.10467 56.207 4.77 58.315 3.206C60.423 1.642 63.1657 0.859999 66.543 0.859999C70.963 0.859999 74.2157 2.10667 76.301 4.6C77.4344 5.93733 78.001 7.592 78.001 9.564C78.001 9.768 77.9217 9.94933 77.763 10.108C77.627 10.244 77.457 10.312 77.253 10.312H70.317C69.9544 10.312 69.6824 10.244 69.501 10.108C69.3424 9.972 69.195 9.71133 69.059 9.326C68.6284 8.102 67.7784 7.49 66.509 7.49C64.8317 7.49 63.993 8.408 63.993 10.244ZM104.503 23.878C104.571 23.9913 104.605 24.1387 104.605 24.32C104.605 24.4787 104.526 24.6373 104.367 24.796C104.231 24.932 104.061 25 103.857 25H96.1054C95.4481 25 94.9834 24.7393 94.7114 24.218L90.5634 16.806V24.082C90.5634 24.3313 90.4728 24.5467 90.2914 24.728C90.1101 24.9093 89.8948 25 89.6454 25H83.1514C82.9021 25 82.6868 24.9093 82.5054 24.728C82.3241 24.5467 82.2334 24.3313 82.2334 24.082V2.118C82.2334 1.86867 82.3241 1.65333 82.5054 1.472C82.6868 1.29067 82.9021 1.2 83.1514 1.2H89.6454C89.8948 1.2 90.1101 1.29067 90.2914 1.472C90.4728 1.65333 90.5634 1.86867 90.5634 2.118V8.85L94.4054 1.948C94.6548 1.44933 95.1081 1.2 95.7654 1.2H103.279C103.483 1.2 103.653 1.27933 103.789 1.438C103.948 1.574 104.027 1.73267 104.027 1.914C104.027 2.07267 103.993 2.20866 103.925 2.322L97.8054 12.59L104.503 23.878ZM127.243 1.2H132.615C132.864 1.2 133.08 1.29067 133.261 1.472C133.442 1.65333 133.533 1.86867 133.533 2.118V24.082C133.533 24.3313 133.442 24.5467 133.261 24.728C133.08 24.9093 132.864 25 132.615 25H126.461C126.212 25 125.996 24.9093 125.815 24.728C125.634 24.5467 125.543 24.3313 125.543 24.082V14.766L123.299 18.438C122.936 19.0047 122.517 19.288 122.041 19.288H119.661C119.185 19.288 118.766 19.0047 118.403 18.438L116.159 14.766V24.082C116.159 24.3313 116.068 24.5467 115.887 24.728C115.706 24.9093 115.49 25 115.241 25H109.087C108.838 25 108.622 24.9093 108.441 24.728C108.26 24.5467 108.169 24.3313 108.169 24.082V2.118C108.169 1.86867 108.26 1.65333 108.441 1.472C108.622 1.29067 108.838 1.2 109.087 1.2H114.459C115.094 1.2 115.581 1.506 115.921 2.118L120.851 10.278L125.781 2.118C126.121 1.506 126.608 1.2 127.243 1.2ZM146.398 1.2H153.776C154.592 1.2 155.102 1.574 155.306 2.322L162.888 24.014C162.911 24.082 162.922 24.1953 162.922 24.354C162.922 24.49 162.843 24.6373 162.684 24.796C162.548 24.932 162.378 25 162.174 25H155.884C155.204 25 154.762 24.7167 154.558 24.15L153.742 21.906H146.432L145.616 24.15C145.412 24.7167 144.97 25 144.29 25H138C137.796 25 137.615 24.932 137.456 24.796C137.32 24.6373 137.252 24.49 137.252 24.354C137.252 24.1953 137.264 24.082 137.286 24.014L144.868 2.322C145.072 1.574 145.582 1.2 146.398 1.2ZM148.166 15.276H152.008L150.07 8.952L148.166 15.276ZM166.036 8.68C166.036 6.368 166.988 4.48667 168.892 3.036C170.818 1.58533 173.334 0.859999 176.44 0.859999C179.568 0.859999 182.118 1.61933 184.09 3.138C186.084 4.65667 187.082 6.24333 187.082 7.898C187.082 8.102 187.002 8.28333 186.844 8.442C186.708 8.578 186.549 8.646 186.368 8.646H179.568C179.046 8.646 178.57 8.45333 178.14 8.068C177.709 7.68267 177.131 7.49 176.406 7.49C175.318 7.49 174.774 7.80733 174.774 8.442C174.774 8.782 175.034 9.06533 175.556 9.292C176.1 9.51867 177.097 9.72267 178.548 9.904C181.925 10.3347 184.328 11.128 185.756 12.284C187.206 13.4173 187.932 15.1513 187.932 17.486C187.932 19.798 186.866 21.6907 184.736 23.164C182.628 24.6147 179.862 25.34 176.44 25.34C173.017 25.34 170.331 24.6373 168.382 23.232C166.432 21.8267 165.458 20.1153 165.458 18.098C165.458 17.894 165.526 17.724 165.662 17.588C165.82 17.4293 166.002 17.35 166.206 17.35H172.666C173.142 17.35 173.663 17.5767 174.23 18.03C174.819 18.4833 175.624 18.71 176.644 18.71C178.344 18.71 179.194 18.3927 179.194 17.758C179.194 17.35 178.888 17.044 178.276 16.84C177.664 16.6133 176.508 16.3867 174.808 16.16C168.96 15.3893 166.036 12.896 166.036 8.68ZM191.879 1.2H211.803C212.053 1.2 212.268 1.29067 212.449 1.472C212.631 1.65333 212.721 1.86867 212.721 2.118V7.592C212.721 7.84133 212.631 8.05667 212.449 8.238C212.268 8.41933 212.053 8.51 211.803 8.51H206.159V24.082C206.159 24.3313 206.069 24.5467 205.887 24.728C205.706 24.9093 205.491 25 205.241 25H198.441C198.192 25 197.977 24.9093 197.795 24.728C197.614 24.5467 197.523 24.3313 197.523 24.082V8.51H191.879C191.63 8.51 191.415 8.41933 191.233 8.238C191.052 8.05667 190.961 7.84133 190.961 7.592V2.118C190.961 1.86867 191.052 1.65333 191.233 1.472C191.415 1.29067 191.63 1.2 191.879 1.2ZM225.118 18.37H235.59C235.839 18.37 236.055 18.4607 236.236 18.642C236.417 18.8233 236.508 19.0387 236.508 19.288V24.082C236.508 24.3313 236.417 24.5467 236.236 24.728C236.055 24.9093 235.839 25 235.59 25H217.876C217.627 25 217.411 24.9093 217.23 24.728C217.049 24.5467 216.958 24.3313 216.958 24.082V2.118C216.958 1.86867 217.049 1.65333 217.23 1.472C217.411 1.29067 217.627 1.2 217.876 1.2H235.318C235.567 1.2 235.783 1.29067 235.964 1.472C236.145 1.65333 236.236 1.86867 236.236 2.118V6.912C236.236 7.16133 236.145 7.37667 235.964 7.558C235.783 7.73933 235.567 7.83 235.318 7.83H225.118V9.972H234.57C234.819 9.972 235.035 10.0627 235.216 10.244C235.397 10.4253 235.488 10.6407 235.488 10.89V15.31C235.488 15.5593 235.397 15.7747 235.216 15.956C235.035 16.1373 234.819 16.228 234.57 16.228H225.118V18.37ZM263.495 23.878C263.563 24.014 263.597 24.1613 263.597 24.32C263.597 24.4787 263.517 24.6373 263.359 24.796C263.223 24.932 263.053 25 262.849 25H255.879C255.176 25 254.689 24.694 254.417 24.082L251.493 17.588H250.099V24.082C250.099 24.3313 250.008 24.5467 249.827 24.728C249.645 24.9093 249.43 25 249.181 25H242.517C242.267 25 242.052 24.9093 241.871 24.728C241.689 24.5467 241.599 24.3313 241.599 24.082V2.118C241.599 1.86867 241.689 1.65333 241.871 1.472C242.052 1.29067 242.267 1.2 242.517 1.2H252.581C255.845 1.2 258.395 1.93667 260.231 3.41C262.067 4.86067 262.985 6.95733 262.985 9.7C262.985 12.42 261.761 14.562 259.313 16.126L263.495 23.878ZM250.099 7.524V11.128H252.581C253.079 11.128 253.465 10.9693 253.737 10.652C254.009 10.312 254.145 9.89267 254.145 9.394C254.145 8.89533 254.009 8.46467 253.737 8.102C253.487 7.71667 253.102 7.524 252.581 7.524H250.099Z" fill="white"/>
</svg>
