<svg width="521" height="415" viewBox="0 0 521 415" fill="none" xmlns="http://www.w3.org/2000/svg">
<path d="M520.5 248.914C520.5 321.276 481.661 346.542 433.75 346.542C385.839 346.542 347 321.276 347 248.914C347 176.552 433.75 84.4967 433.75 84.4967C433.75 84.4967 520.5 176.552 520.5 248.914Z" fill="#F2F2F2"/>
<path d="M430.815 335.716L431.698 275.097L468.45 200.103L431.836 265.588L432.233 238.331L457.563 184.073L432.338 231.118V231.118L433.052 182.095L460.176 138.899L433.164 174.387L433.611 84.4967L430.807 203.494L431.038 198.586L403.461 151.505L430.595 208.009L428.026 262.759L427.949 261.306L396.158 211.76L427.853 266.439L427.532 273.286L427.474 273.389L427.5 273.951L420.982 412.856H429.691L430.736 341.109L462.353 286.564L430.815 335.716Z" fill="#03222C"/>
<path d="M47.2306 369.444C47.2306 388.938 36.6576 395.744 23.6153 395.744C10.5729 395.744 0 388.938 0 369.444C0 349.951 23.6153 325.152 23.6153 325.152C23.6153 325.152 47.2306 349.951 47.2306 369.444Z" fill="#F2F2F2"/>
<path d="M22.7364 392.001L22.9715 375.613L32.7723 355.337L23.0085 373.041L23.1144 365.672L29.8691 351.003L23.1425 363.722L23.3328 350.469L30.5661 338.79L23.363 348.385L23.4819 324.082L22.7343 356.254L22.7953 354.927L15.4416 342.198L22.6775 357.475L21.9925 372.277L21.9722 371.884L13.4945 358.489L21.9461 373.272L21.8606 375.123L21.8455 375.15L21.8523 375.303L20.1137 412.857H22.4367L22.715 393.459L31.1468 378.713L22.7364 392.001Z" fill="#03222C"/>
<path d="M2.89172 413.398H474.233" stroke="#03222C" stroke-width="2"/>
<path d="M475.197 395.995C475.197 409.286 468.077 413.927 459.293 413.927C459.09 413.927 458.886 413.924 458.684 413.919C458.277 413.91 457.873 413.888 457.475 413.858C449.548 413.236 443.389 408.356 443.389 395.995C443.389 383.203 458.121 367.062 459.227 365.867L459.229 365.865C459.272 365.819 459.293 365.796 459.293 365.796C459.293 365.796 475.197 382.704 475.197 395.995Z" fill="#064005"/>
<path d="M458.533 411.901L464.42 402.88L458.518 412.891L458.503 413.927C458.091 413.917 457.683 413.896 457.28 413.866L457.914 400.566L457.91 400.463L457.92 400.444L457.98 399.187L452.064 389.152L457.999 398.245L458.012 398.512L458.492 388.464L453.427 378.093L458.554 386.7L459.053 365.867L459.055 365.796V365.865L458.972 382.293L464.014 375.78L458.951 383.708L458.818 392.705L463.526 384.07L458.798 394.029L458.723 399.03L465.558 387.013L458.698 400.776L458.533 411.901Z" fill="#03222C"/>
<rect x="301.697" y="94.1228" width="5.78333" height="50.2701" rx="2.29166" fill="#03222C"/>
<rect x="119.522" y="54.5486" width="2.89167" height="16.0436" rx="1.44583" fill="#03222C"/>
<rect x="119.522" y="84.4967" width="3.85556" height="28.8785" rx="1.6946" fill="#03222C"/>
<rect x="119.522" y="124.071" width="2.89167" height="28.8785" rx="1.44583" fill="#03222C"/>
<rect x="121.45" width="183.139" height="412.857" rx="35.694" fill="#03222C"/>
<rect x="194.706" y="12.8351" width="26.025" height="5.34788" rx="2.54189" fill="#E6E8EC"/>
<path d="M227.478 18.1829C229.075 18.1829 230.37 16.7463 230.37 14.9742C230.37 13.2021 229.075 11.7655 227.478 11.7655C225.881 11.7655 224.586 13.2021 224.586 14.9742C224.586 16.7463 225.881 18.1829 227.478 18.1829Z" fill="#E6E8EC"/>
<path d="M293.986 26.8355V386.028C293.985 394.94 287.454 402.163 279.4 402.162H147.603C139.549 402.163 133.018 394.94 133.017 386.028V26.8355C133.016 22.5549 134.553 18.4495 137.289 15.4227C140.024 12.3958 143.735 10.6955 147.603 10.6959H167.325V13.4987C167.327 20.8375 172.704 26.7863 179.336 26.7884H246.363C252.996 26.7884 258.374 20.8384 258.374 13.4987V10.6959H279.4C283.268 10.6955 286.979 12.3958 289.714 15.4227C292.45 18.4495 293.987 22.5549 293.986 26.8355Z" fill="white"/>
<rect x="133.017" y="94.1228" width="160.969" height="205.359" fill="#F2F2F2"/>
<path d="M144.583 327.29L143.745 326.456C140.767 323.443 138.801 321.487 138.801 319.051C138.786 318.115 139.115 317.211 139.714 316.547C140.314 315.883 141.131 315.514 141.981 315.525C142.986 315.531 143.937 316.023 144.583 316.871C145.229 316.023 146.181 315.531 147.186 315.525C148.036 315.514 148.853 315.883 149.452 316.547C150.051 317.211 150.381 318.115 150.366 319.051C150.366 321.487 148.4 323.443 145.422 326.456L144.583 327.29Z" fill="#FF6584"/>
<path d="M174.464 324.656L176.136 325.151C176.742 323.331 178.175 321.937 179.967 321.424C181.759 320.912 183.679 321.347 185.101 322.588L182.548 325.151H188.922V318.734L186.353 321.284C184.488 319.589 181.926 318.978 179.533 319.657C177.139 320.336 175.235 322.214 174.464 324.657L174.464 324.656Z" fill="#F2F2F2"/>
<path d="M143.138 79.1488C147.13 79.1488 150.367 75.5574 150.367 71.127C150.367 66.6967 147.13 63.1052 143.138 63.1052C139.145 63.1052 135.908 66.6967 135.908 71.127C135.908 75.5574 139.145 79.1488 143.138 79.1488Z" fill="#064005"/>
<rect x="156.15" y="66.3137" width="69.4" height="9.6262" fill="#064005"/>
<rect x="137.836" y="341.194" width="69.4" height="9.6262" fill="#F2F2F2"/>
<rect x="138.8" y="361.517" width="145.547" height="9.6262" fill="#F2F2F2"/>
<path d="M167.717 327.29L165.939 323.774C166.818 321.39 166.01 318.637 164.043 317.32C162.077 316.002 159.553 316.521 158.123 318.537C156.693 320.552 156.794 323.45 158.359 325.333C159.925 327.215 162.477 327.508 164.346 326.02L167.717 327.29Z" fill="#F2F2F2"/>
<path d="M199.096 141.666H199.096C193.597 142.928 188.77 146.586 185.677 151.837C182.585 157.088 181.479 163.502 182.605 169.666L186.973 193.593L191.863 192.471L192.209 189.936L193.233 192.157L222.965 185.337L223.31 182.801L224.334 185.023L228.442 184.08L224.074 160.153C222.948 153.988 219.685 148.578 215.001 145.111C210.316 141.644 204.595 140.405 199.096 141.666Z" fill="#1D1F1F"/>
<path d="M236.777 214.985L262.178 232.297L259.003 240.655L235.189 228.119L236.777 214.985Z" fill="#9F616A"/>
<path d="M204.254 234.92C204.254 234.92 152.672 234.92 144.164 249.639C135.656 264.357 142.569 284.963 169.157 289.673C195.746 294.383 276.575 296.738 282.957 279.076C289.338 261.414 284.552 251.405 284.552 251.405C284.552 251.405 256.9 230.21 204.254 234.92Z" fill="#064005"/>
<path d="M249.267 249.195L277.601 260.976C277.601 260.976 289.362 251.552 283.481 240.949C277.601 230.346 250.871 169.084 250.871 169.084C250.871 169.084 243.387 157.303 253.009 150.824C262.632 144.344 266.374 154.947 266.374 154.947C266.374 154.947 265.839 157.303 269.582 155.536C273.324 153.769 280.273 159.66 276.531 169.084C272.789 178.509 270.116 180.865 278.135 180.276C281.031 180.064 283.578 177.777 285.651 174.942C289.623 169.508 287.85 165.131 287.549 158.161C287.034 146.222 286.193 138.437 283.481 133.741C279.739 127.262 274.393 121.96 260.494 124.906C246.594 127.851 226.28 142.577 231.091 163.783C235.902 184.989 246.594 208.551 246.594 208.551C246.594 208.551 254.078 241.538 249.267 249.195Z" fill="#064005"/>
<path opacity="0.1" d="M249.647 248.972C245.057 250.378 239.293 251.063 233.087 251.275C222.26 251.647 210.072 250.584 200.339 249.38C189.825 248.075 182.175 246.611 182.175 246.611C185.729 242.926 191.191 241.468 197.609 240.936C205.578 240.275 215.024 241.031 224.146 240.706C227.509 240.575 230.874 240.856 234.182 241.545C244.244 243.676 249.647 248.972 249.647 248.972Z" fill="#0C190E"/>
<path d="M203.863 185.037C212.114 185.037 218.803 177.614 218.803 168.458C218.803 159.302 212.114 151.88 203.863 151.88C195.611 151.88 188.922 159.302 188.922 168.458C188.922 177.614 195.611 185.037 203.863 185.037Z" fill="#9F616A"/>
<path d="M201.697 181.947C201.697 181.947 204.32 193.237 201.697 193.831C199.074 194.426 192.778 197.397 192.778 197.397L200.648 200.962L215.338 216.411L227.929 223.542L234.225 221.165V208.092L224.781 191.454C224.781 191.454 218.486 193.831 216.912 186.107C215.338 178.382 212.19 175.411 212.19 175.411L201.697 181.947Z" fill="#9F616A"/>
<path d="M197.94 197.871H191.562C191.562 197.871 180.401 201.975 174.023 211.355C167.646 220.734 157.547 230.114 157.547 230.114C157.547 230.114 150.638 240.666 154.358 255.322C158.079 269.978 163.394 280.53 168.177 277.599C172.96 274.668 161.268 253.563 161.268 253.563L164.457 240.666C164.457 240.666 180.933 219.562 187.842 220.148C194.751 220.734 195.283 227.183 195.283 227.183L210.164 231.873L214.947 220.734L212.29 209.01L197.94 197.871Z" fill="#9F616A"/>
<path d="M235.936 235.561C234.937 237.456 234.205 239.509 233.765 241.648C233.105 244.808 232.74 248.034 232.676 251.276C221.907 251.644 209.785 250.592 200.105 249.4C199.249 246.877 198.308 243.973 197.389 241.046C194.91 233.136 192.607 225.063 192.607 223.877C192.607 221.54 203.703 225.629 206.345 225.045C208.987 224.461 210.044 215.114 206.345 210.44C202.646 205.767 191.814 197.88 191.814 197.88L195.513 196.712C195.513 196.712 203.703 203.43 220.612 214.53C237.522 225.629 230.652 208.104 230.652 208.104L220.877 191.454H225.104C225.104 191.454 233.294 206.935 237.522 213.946C241.749 220.956 240.164 227.966 235.936 235.561Z" fill="#03222C"/>
<path d="M187.347 152.844L214.255 146.734L217.634 165.056L190.726 171.166L187.347 152.844Z" fill="#1D1F1F"/>
<path d="M272.299 149.74C276.824 149.74 280.492 145.67 280.492 140.649C280.492 135.628 276.824 131.558 272.299 131.558C267.774 131.558 264.106 135.628 264.106 140.649C264.106 145.67 267.774 149.74 272.299 149.74Z" fill="#03222C"/>
<path d="M272.299 145.463C274.694 145.463 276.636 143.308 276.636 140.65C276.636 137.992 274.694 135.837 272.299 135.837C269.903 135.837 267.961 137.992 267.961 140.65C267.961 143.308 269.903 145.463 272.299 145.463Z" fill="white"/>
<path d="M38.042 241.725L37.4891 246.353C37.3019 247.92 37.1146 249.489 37.0139 251.065C36.6786 256.309 37.3036 261.573 37.1391 266.827C37.0124 270.871 36.4182 274.913 36.7052 278.948C36.9592 282.516 37.896 285.981 38.8275 289.415L40.1589 294.323C40.181 294.621 40.3297 294.89 40.561 295.051C40.7923 295.213 41.0798 295.248 41.3385 295.146L47.2306 294.567C46.8532 292.692 46.4336 290.736 46.2308 288.829C46.0704 287.32 45.974 285.805 45.8734 284.29C45.5599 279.57 45.2049 274.852 44.8499 270.135L44.2264 261.847C43.9559 258.252 43.6821 254.637 42.8475 251.145C42.0157 247.611 40.3611 244.367 38.042 241.725Z" fill="#064005"/>
<path opacity="0.1" d="M38.042 241.725L37.4891 246.353C37.3019 247.92 37.1146 249.489 37.0139 251.065C36.6786 256.309 37.3036 261.573 37.1391 266.827C37.0124 270.871 36.4182 274.913 36.7052 278.948C36.9592 282.516 37.896 285.981 38.8275 289.415L40.1589 294.323C40.181 294.621 40.3297 294.89 40.561 295.051C40.7923 295.213 41.0798 295.248 41.3385 295.146L47.2306 294.567C46.8532 292.692 46.4336 290.736 46.2308 288.829C46.0704 287.32 45.974 285.805 45.8734 284.29C45.5599 279.57 45.2049 274.852 44.8499 270.135L44.2264 261.847C43.9559 258.252 43.6821 254.637 42.8475 251.145C42.0157 247.611 40.3611 244.367 38.042 241.725Z" fill="#0C190E"/>
<path d="M49.0105 401.561C48.6671 402.308 48.3682 403.079 48.1157 403.87C47.446 406.052 47.3448 408.391 47.2496 410.694C47.2038 411.139 47.241 411.589 47.3587 412.017C47.6449 412.845 48.4701 413.264 49.2415 413.494C52.472 414.459 55.8782 413.551 59.2102 413.22C62.4806 412.896 65.812 413.13 69.0153 412.33C69.4887 412.231 69.9462 412.054 70.3731 411.806C71.1851 411.22 71.7909 410.342 72.0888 409.319C72.1862 409.057 72.2518 408.782 72.2836 408.501C72.3894 407.29 71.438 406.237 70.4017 405.838C69.3654 405.44 68.2386 405.506 67.1477 405.382C62.534 404.855 58.8122 400.958 58.0695 395.876C58.0309 395.612 52.6753 395.768 52.1116 396.111C51.4518 396.513 51.0525 397.516 50.6808 398.193C50.0802 399.288 49.5235 400.411 49.0105 401.561Z" fill="#03222C"/>
<path opacity="0.1" d="M49.0105 401.561C48.6671 402.308 48.3682 403.079 48.1157 403.87C47.446 406.052 47.3448 408.391 47.2496 410.694C47.2038 411.139 47.241 411.589 47.3587 412.017C47.6449 412.845 48.4701 413.264 49.2415 413.494C52.472 414.459 55.8782 413.551 59.2102 413.22C62.4806 412.896 65.812 413.13 69.0153 412.33C69.4887 412.231 69.9462 412.054 70.3731 411.806C71.1851 411.22 71.7909 410.342 72.0888 409.319C72.1862 409.057 72.2518 408.782 72.2836 408.501C72.3894 407.29 71.438 406.237 70.4017 405.838C69.3654 405.44 68.2386 405.506 67.1477 405.382C62.534 404.855 58.8122 400.958 58.0695 395.876C58.0309 395.612 52.6753 395.768 52.1116 396.111C51.4518 396.513 51.0525 397.516 50.6808 398.193C50.0802 399.288 49.5235 400.411 49.0105 401.561Z" fill="#0C190E"/>
<path d="M57.6856 401.561C57.3421 402.308 57.0432 403.079 56.7908 403.87C56.1211 406.052 56.0199 408.391 55.9246 410.694C55.8789 411.139 55.916 411.589 56.0337 412.017C56.32 412.845 57.1452 413.264 57.9165 413.494C61.147 414.459 64.5533 413.551 67.8852 413.22C71.1556 412.896 74.4871 413.13 77.6903 412.33C78.1637 412.231 78.6213 412.054 79.0481 411.806C79.8602 411.22 80.4659 410.342 80.7638 409.319C80.8613 409.057 80.9268 408.782 80.9587 408.501C81.0644 407.29 80.1131 406.237 79.0767 405.838C78.0404 405.44 76.9137 405.506 75.8228 405.382C71.2091 404.855 67.4873 400.958 66.7446 395.876C66.7059 395.612 61.3504 395.768 60.7867 396.111C60.1269 396.513 59.7275 397.516 59.3559 398.193C58.7553 399.288 58.1985 400.411 57.6856 401.561Z" fill="#03222C"/>
<path d="M80.0018 343.285C80.0695 355.1 77.0028 366.649 73.406 377.755C71.982 382.151 70.4709 386.509 68.8728 390.829C67.9266 393.39 66.8606 396.23 67.8744 398.757C64.9567 397.513 61.9694 396.778 58.8892 397.353C60.0617 394.675 59.9514 391.558 60.0036 388.577C60.1055 384.529 60.4943 380.497 61.1664 376.519C62.1983 370.465 63.9684 364.6 66.4272 359.087C66.9257 357.924 67.2692 356.686 67.4468 355.412C67.7661 352.579 67.6192 349.703 67.0134 346.929C65.8895 340.783 63.7559 334.925 60.7214 329.653C60.7118 329.77 60.7021 329.889 60.6905 330.006C60.507 331.763 60.2428 333.509 59.8991 335.235C59.2104 338.895 58.4074 342.556 58.5274 346.235C58.6565 350.137 58.4407 354.044 57.8831 357.899C57.706 359.413 57.3542 360.895 56.8364 362.308C56.4997 363.154 56.0605 363.949 55.7954 364.825C55.5325 365.838 55.3951 366.886 55.3872 367.941C54.9944 376.838 55.3814 388.223 57.0047 396.944C54.2692 396.803 51.5508 397.497 49.1397 398.952C47.1778 392.749 45.9279 383.94 44.9934 377.408C43.9352 369.692 44.1503 361.823 45.628 354.194C46.0876 351.648 46.2599 349.048 46.1408 346.454C45.9318 341.288 44.798 336.235 43.672 331.22C43.0993 328.675 42.5266 326.129 41.9538 323.583C41.1393 319.956 40.3234 316.328 39.5063 312.7C38.9646 310.287 38.417 307.822 38.5873 305.34C38.7069 303.979 38.962 302.637 39.3476 301.34C40.5665 296.925 42.3888 292.748 44.7496 288.959C54.1508 289.551 63.6662 288.564 73.0539 287.756C73.5103 287.655 73.9841 287.745 74.385 288.01C74.7037 288.374 74.8935 288.855 74.919 289.364C76.0954 296.829 77.2711 304.293 78.4462 311.757C79.0184 314.874 79.3544 318.039 79.4503 321.22C79.4678 324.389 79.0092 327.548 79.1156 330.715C79.2588 334.982 79.9785 339.016 80.0018 343.285Z" fill="#1D1F1F"/>
<path opacity="0.1" d="M60.7251 330.693C60.5381 332.425 60.269 334.146 59.9188 335.848C57.8349 331.941 55.5894 328.133 53.6712 324.128C53.1763 323.096 52.7052 322.051 52.232 321.008C51.7608 319.965 51.2896 318.922 50.8184 317.879C50.5542 317.294 50.2881 316.706 50.0495 316.106C49.6599 315.241 49.361 314.331 49.1584 313.394C49.8563 313.255 51.5755 315.294 52.092 315.826C53.1515 316.958 54.152 318.154 55.0886 319.407C56.2219 320.798 57.2622 322.274 58.2016 323.825C59.4021 325.939 60.2559 328.263 60.7251 330.693Z" fill="#0C190E"/>
<path d="M69.4 222.061C69.4 222.061 64.0491 231.646 65.04 233.652C66.0309 235.658 48.1945 231.869 48.1945 231.869C48.1945 231.869 57.9054 222.284 56.9145 218.272C55.9236 214.259 69.4 222.061 69.4 222.061Z" fill="#EFB7B9"/>
<path d="M64.0987 224.611C70.7529 224.611 76.1473 218.625 76.1473 211.241C76.1473 203.857 70.7529 197.871 64.0987 197.871C57.4444 197.871 52.05 203.857 52.05 211.241C52.05 218.625 57.4444 224.611 64.0987 224.611Z" fill="#EFB7B9"/>
<path d="M69.2683 231.257C67.9819 229.283 66.2354 227.73 64.2138 226.761C63.05 226.301 61.8469 225.974 60.6229 225.784L55.8277 224.854C54.6525 224.626 53.3947 224.409 52.3044 224.943C51.7471 225.253 51.2398 225.662 50.8026 226.154C49.1359 227.855 47.5207 229.727 45.4311 230.709C44.859 230.978 44.2607 231.175 43.6895 231.446C41.3515 232.556 39.6034 234.873 38.6102 237.457C37.5683 240.168 37.5381 243.106 37.6203 246.049C37.6177 247.065 37.7083 248.078 37.8907 249.073C38.1326 250.021 38.4366 250.947 38.8002 251.846C39.4624 253.766 40.017 255.728 40.4608 257.723C41.7031 262.966 42.7359 268.262 43.5592 273.611C43.631 274.38 43.8361 275.127 44.1635 275.81C44.6262 276.491 45.1861 277.084 45.8213 277.566C46.3242 278.026 46.7891 278.533 47.2105 279.084C47.4161 279.319 47.5667 279.605 47.6495 279.918C47.805 280.709 47.1711 281.387 46.6566 281.964C45.5877 283.166 44.8151 284.649 44.412 286.273C44.1608 286.606 44.0334 287.032 44.0554 287.464C44.1583 287.763 44.1967 288.085 44.1674 288.404C44.0687 288.695 43.9146 288.959 43.7154 289.178C43.2517 289.844 43.0701 290.697 43.2167 291.521C46.9423 293.306 50.9293 294.335 54.9862 294.559C55.9796 294.61 56.977 294.61 57.9641 294.744C58.6681 294.84 59.3635 295.003 60.068 295.094C61.0929 295.2 62.1231 295.229 63.1516 295.18C68.5012 295.064 74.0078 294.911 78.9202 292.572C79.383 289.795 78.386 286.964 77.7607 284.226C76.7661 279.87 76.5155 275.353 75.7756 270.936C75.2691 267.913 74.5335 264.938 74.1117 261.899C73.6899 258.86 73.591 255.709 74.3487 252.751C75.0202 250.129 75.2229 247.46 75.9189 244.846C76.6149 242.232 77.1026 239.399 76.3169 236.816C75.3427 233.613 72.3279 231.08 69.2683 231.257Z" fill="#064005"/>
<path d="M75.0268 204.82C75.6139 202.484 74.4593 200.052 73.0779 198.154C71.5936 196.115 69.6758 194.276 67.334 193.763C65.4309 193.347 63.4589 193.85 61.5239 193.682C59.8087 193.534 58.1653 192.864 56.459 192.624C54.9155 192.443 53.3562 192.507 51.8297 192.815C50.3786 193.046 48.9605 193.477 47.6097 194.099C42.4699 196.581 39.4583 202.709 38.7595 208.787C38.0607 214.865 39.2861 220.989 40.5041 226.969L41.6052 232.374C42.7512 238.001 43.9011 243.656 44.2077 249.41C44.5144 255.163 43.9422 261.07 41.7701 266.325C48.7931 262.214 54.2345 255.501 57.1105 247.4C57.8915 245.175 58.4697 242.867 59.3348 240.679C60.0792 238.797 61.0321 237.014 61.6918 235.095C62.4359 232.926 62.7931 230.623 62.7444 228.309C62.7069 226.569 62.4398 224.838 62.4863 223.099C62.5329 221.36 62.9388 219.545 64.0421 218.288C65.0229 217.17 66.4164 216.633 67.6802 215.929C69.6676 214.817 71.4039 213.238 72.7637 211.307C73.5594 210.177 73.6018 209.695 73.8042 208.392C74.0011 207.124 74.7176 206.05 75.0268 204.82Z" fill="#1D1F1F"/>
<path d="M75.0806 303.67C75.2032 305.052 74.9772 306.467 75.2493 307.822C75.4537 308.84 75.9289 309.766 76.2082 310.762C76.4856 311.916 76.6283 313.105 76.6328 314.3C76.6731 315.301 76.6039 316.52 75.8059 316.989C75.4555 317.195 75.035 317.199 74.6703 317.372C74.3055 317.545 73.9925 318.036 74.2014 318.411C74.377 318.726 74.7757 318.729 75.1024 318.804C75.4292 318.878 75.7887 319.254 75.5991 319.559C75.5229 319.658 75.4215 319.73 75.308 319.765C74.9739 319.876 74.6576 320.045 74.3706 320.265C74.0805 320.495 73.9313 320.886 73.9848 321.277C74.0246 321.464 74.1397 321.621 74.2969 321.701C74.4541 321.781 74.6359 321.777 74.7898 321.689C74.6434 322.036 74.5634 322.413 74.555 322.797C75.8318 323.406 77.2691 322.609 78.4708 321.834C78.9919 321.513 79.495 321.157 79.9773 320.769C81.942 319.084 83.0291 316.43 82.8811 313.678C82.8254 312.996 82.7313 312.319 82.5991 311.65C82.4128 310.487 82.1669 309.336 81.8625 308.204C81.519 307.01 81.0469 305.867 80.6419 304.697C79.779 302.204 79.2235 299.593 78.4466 297.065C78.4241 296.821 78.3109 296.598 78.1343 296.451C77.9577 296.303 77.7337 296.244 77.5162 296.287C76.6406 296.236 75.7631 296.326 74.9106 296.553C74.3954 296.72 73.5503 297.088 73.3194 297.687C73.1113 298.227 73.4601 298.71 73.6813 299.173C74.4059 300.557 74.8811 302.084 75.0806 303.67Z" fill="#EFB7B9"/>
<path opacity="0.1" d="M74.5224 237.446C74.7713 237.733 74.9796 238.063 75.1402 238.423C76.7971 241.847 76.8181 245.946 76.896 249.853C76.9837 254.252 77.1954 258.645 77.4071 263.038L78.0401 276.176C78.1006 277.431 78.1612 278.688 78.316 279.932C79.0607 280.146 79.0915 281.24 79.0052 282.108C78.4721 287.469 77.1457 292.988 78.5348 298.147C78.5879 298.413 78.6997 298.659 78.8596 298.862C78.1595 298.611 77.4099 298.599 76.704 298.829C76.0116 298.995 75.3458 299.283 74.6558 299.461C73.7778 299.689 72.7825 299.786 72.1835 300.551C71.5067 298.232 70.9677 295.865 70.5702 293.464C70.2414 291.283 70.1519 289.014 69.3702 286.987C69.0545 286.169 68.6328 285.41 68.248 284.631C66.2234 280.53 65.2322 275.892 64.2634 271.321C63.8285 269.153 63.7242 266.917 63.9552 264.709C64.0927 263.702 64.1735 262.685 64.197 261.666C64.1354 260.591 64.0114 259.522 63.8261 258.465C63.4171 255.366 63.6087 252.202 64.3874 249.196C65.1129 246.404 65.749 243.467 67.2662 241.122C68.7834 238.777 71.9624 237.485 74.5224 237.446Z" fill="#0C190E"/>
<path d="M74.5224 236.377C74.7712 236.665 74.9796 236.994 75.1402 237.354C76.7971 240.778 76.8181 244.877 76.896 248.784C76.9837 253.183 77.1954 257.577 77.4071 261.969L78.0401 275.107C78.1006 276.362 78.1612 277.619 78.316 278.864C79.0607 279.077 79.0915 280.171 79.0052 281.039C78.4721 286.4 77.1457 291.919 78.5348 297.078C78.5879 297.344 78.6997 297.59 78.8596 297.793C78.1595 297.542 77.4099 297.53 76.704 297.76C76.0116 297.926 75.3458 298.214 74.6558 298.393C73.7778 298.62 72.7825 298.717 72.1835 299.482C71.5067 297.164 70.9677 294.796 70.5702 292.396C70.2414 290.214 70.1519 287.946 69.3702 285.919C69.0545 285.1 68.6328 284.341 68.248 283.562C66.2234 279.461 65.2322 274.824 64.2634 270.252C63.8285 268.084 63.7242 265.848 63.9552 263.64C64.0927 262.633 64.1735 261.616 64.197 260.597C64.1354 259.522 64.0114 258.453 63.8261 257.396C63.4171 254.297 63.6087 251.134 64.3874 248.127C65.1129 245.335 65.749 242.398 67.2662 240.053C68.7834 237.708 71.9624 236.416 74.5224 236.377Z" fill="#064005"/>
<g opacity="0.1">
<path d="M72.9636 197.422C71.484 195.369 69.5722 193.515 67.2377 193C65.3405 192.581 63.3747 193.087 61.4458 192.918C59.7361 192.769 58.0978 192.094 56.3969 191.852C54.8582 191.67 53.3038 191.735 51.7821 192.044C50.3355 192.277 48.9218 192.711 47.5752 193.338C46.8476 193.695 46.1532 194.128 45.5017 194.633C46.7021 194.132 47.9476 193.775 49.2169 193.565C50.7386 193.255 52.2931 193.19 53.8317 193.372C55.5327 193.614 57.1709 194.289 58.8807 194.439C60.8096 194.607 62.7754 194.101 64.6725 194.52C67.007 195.036 68.9188 196.889 70.3984 198.943C71.7755 200.854 72.9266 203.303 72.3413 205.656C72.0331 206.895 71.3187 207.977 71.1225 209.254C70.9207 210.566 70.8785 211.052 70.0853 212.19C69.0643 213.653 67.8293 214.92 66.4309 215.937C66.8168 215.734 67.2056 215.537 67.5828 215.325C69.564 214.205 71.2948 212.615 72.6504 210.669C73.4436 209.532 73.4859 209.046 73.6876 207.733C73.8839 206.456 74.5982 205.375 74.9064 204.136C75.4917 201.783 74.3407 199.334 72.9636 197.422Z" fill="#0C190E"/>
<path d="M63.9561 217.701C64.163 217.465 64.3882 217.25 64.6291 217.058C63.479 217.671 62.2691 218.21 61.391 219.222C60.2912 220.488 59.8865 222.316 59.8401 224.068C59.7936 225.819 60.0599 227.563 60.0974 229.315C60.1459 231.646 59.7898 233.965 59.0481 236.149C58.3904 238.082 57.4405 239.878 56.6985 241.774C55.8361 243.977 55.2597 246.302 54.4811 248.543C51.9941 255.616 47.5776 261.667 41.8392 265.864C41.81 265.937 41.7837 266.011 41.7539 266.084C48.7549 261.944 54.1792 255.183 57.0462 247.023C57.8248 244.782 58.4012 242.457 59.2636 240.253C60.0056 238.357 60.9555 236.562 61.6132 234.629C62.3549 232.445 62.711 230.125 62.6625 227.794C62.6251 226.042 62.3588 224.299 62.4052 222.547C62.4516 220.796 62.8563 218.968 63.9561 217.701Z" fill="#0C190E"/>
</g>
<path d="M326.3 411.596C325.722 412.326 324.731 412.473 323.834 412.569C322.676 412.744 321.501 412.768 320.338 412.639C318.955 412.424 318.127 413.245 316.864 412.613C316.1 412.231 314.924 412.995 314.16 412.613C313.112 412.09 309.496 411.981 308.858 410.96C308.221 409.938 308.285 408.324 309.294 407.721C309.579 407.579 309.875 407.459 310.177 407.36C311.865 406.659 315.284 401.368 317.079 401.097C317.97 401.054 318.855 401.271 319.634 401.725C321.404 402.546 324.531 403.194 325.303 405.277C325.905 406.9 327.552 410.01 326.3 411.596Z" fill="#1D1F1F"/>
<path d="M338.778 412.215C339.35 412.987 340.329 413.142 341.215 413.244C342.36 413.43 343.521 413.455 344.672 413.318C346.038 413.091 347.703 414.403 348.952 413.735C349.707 413.33 350.87 413.541 351.625 413.137C352.66 412.582 357.527 413.818 358.158 412.737C358.788 411.655 358.724 409.946 357.727 409.307C357.445 409.157 357.153 409.03 356.854 408.925C355.186 408.183 349.668 401.384 347.893 401.097C347.012 401.051 346.137 401.282 345.367 401.763C343.617 402.632 340.527 403.318 339.763 405.524C339.168 407.242 337.54 410.535 338.778 412.215Z" fill="#1D1F1F"/>
<path d="M344.193 291.826C344.738 292.978 345.214 294.168 345.618 295.389C350.452 309.466 350.857 324.849 351.057 339.896C351.04 342.343 351.167 344.788 351.437 347.217C351.639 348.757 351.959 350.313 351.753 351.853C351.574 353.184 351.005 354.496 351.232 355.818C351.334 356.411 351.592 356.961 351.694 357.554C351.772 358.205 351.756 358.864 351.646 359.509L350.998 364.817C350.628 367.841 349.776 370.753 349.823 373.804C349.854 375.884 349.886 377.969 350.097 380.037C350.31 382.137 350.708 384.221 350.729 386.334C350.744 387.916 350.547 389.49 350.42 391.067C350.24 393.292 350.2 395.529 350.298 397.761C350.374 399.481 350.553 401.267 351.382 402.727C350.453 404.193 349.534 405.506 348.048 406.223C345.027 407.681 341.562 407.186 338.298 406.665C338.479 406.002 338.759 405.251 338.498 404.621C338.344 404.316 338.156 404.034 337.937 403.781C337.225 402.666 336.73 401.4 336.485 400.064C336.09 398.479 335.694 396.773 336.506 395.252C336.785 394.711 336.908 394.088 336.859 393.468C336.184 383.489 334.166 373.164 336.024 363.371C336.222 362.325 336.458 361.286 336.569 360.225C336.669 358.699 336.686 357.168 336.619 355.64L336.58 353.512C336.483 351.242 336.567 348.916 336.154 346.671C335.857 345.063 335.304 343.447 335.986 341.808C336.287 341.047 336.25 340.174 335.885 339.447C334.451 336.682 333.298 333.752 332.446 330.71C332.269 329.86 332.027 329.028 331.722 328.223C331.306 327.374 330.828 326.565 330.293 325.802C328.675 323.22 327.708 320.225 326.759 317.268C326.86 316.997 326.782 316.62 326.518 316.659C326.257 316.732 326.033 316.916 325.895 317.171C324.594 319.095 324.485 321.663 324.427 324.061C324.328 326.288 324.362 328.521 324.53 330.744C324.641 331.909 324.826 333.064 324.921 334.231C325.045 336.407 325.014 338.591 324.827 340.761L324.163 351.444C324.073 352.327 324.121 353.22 324.306 354.085C324.732 355.583 324.94 357.145 324.921 358.713C324.746 365.166 325.253 371.619 326.431 377.943C326.756 379.689 327.131 381.424 327.406 383.18C328.055 387.319 328.143 391.536 328.231 395.734C328.284 398.316 328.323 400.99 327.399 403.364C327.038 404.096 326.773 404.88 326.612 405.694C326.608 406.113 326.558 406.531 326.461 406.937C326.189 407.705 325.376 408.032 324.644 408.207C323.269 408.537 321.859 408.647 320.456 408.536C320.126 408.53 319.801 408.45 319.5 408.302C318.977 408.004 318.699 407.371 318.301 406.893C317.442 405.86 316.015 405.544 315.233 404.441C314.255 403.061 314.665 401.062 315.248 399.434C315.83 397.805 316.551 396.037 316.049 394.376C315.459 392.419 313.365 391.365 312.803 389.397C314.407 381.462 310.467 373.255 310.805 365.134C310.884 363.243 311.182 361.365 311.188 359.471C311.203 354.594 309.284 349.848 309.6 344.983C310.402 332.619 306.576 320.277 304.955 308.01C304.648 306.18 304.533 304.316 304.614 302.456C304.854 299.386 306.149 296.528 307.706 293.967C308.822 292.133 310.164 290.337 312.012 289.478C313.534 288.771 315.24 288.774 316.892 288.789C321.013 288.824 325.135 288.859 329.256 288.94C332.061 288.897 334.862 289.173 337.615 289.764C339.844 290.325 341.929 291.469 344.193 291.826Z" fill="#1D1F1F"/>
<path d="M278.218 235.44C277.805 233.226 278.586 230.857 277.975 228.698C277.754 227.919 277.213 227.11 276.468 227.133C275.744 227.154 275.255 227.929 274.613 228.296C273.579 228.888 272.323 228.351 271.29 227.758C270.256 227.165 269.104 226.494 267.984 226.849C267.852 227.617 268.325 228.35 268.841 228.89C269.413 229.362 269.885 229.962 270.228 230.65C270.396 231.393 270.46 232.16 270.418 232.924C270.535 234.678 271.551 236.189 272.566 237.553C274.2 239.752 275.937 241.858 277.767 243.863C277.764 243.86 280.544 240.096 280.491 239.439C280.441 238.819 279.505 238.238 279.165 237.739C278.7 237.057 278.377 236.273 278.218 235.44Z" fill="#A1616A"/>
<path d="M357.209 280.63C357.442 281.324 357.617 282.042 357.731 282.775C358.407 286.526 358.833 290.33 359.253 294.13C359.365 295.144 359.477 296.159 359.512 297.181C359.63 299.606 359.195 302.025 358.248 304.199C357.284 306.378 355.647 308.068 353.654 308.939C353.041 309.189 352.183 309.234 351.915 308.554C351.819 308.24 351.821 307.897 351.921 307.584C352.163 306.572 352.656 305.664 352.976 304.681C353.45 303.212 353.53 301.614 353.203 300.093C353.077 299.511 352.811 298.862 352.298 298.746C352.554 300.088 352.339 301.49 351.698 302.651C351.552 302.974 351.3 303.218 350.998 303.33C350.561 303.38 350.152 303.078 350.011 302.601C349.886 302.133 349.859 301.638 349.932 301.156C350.096 298.719 350.42 296.299 350.901 293.917C351.473 291.302 352.38 288.722 352.322 286.028C352.269 283.586 351.42 281.188 351.658 278.761C351.661 278.611 351.703 278.465 351.779 278.343C351.854 278.258 351.945 278.193 352.045 278.155C352.64 277.874 353.253 277.641 353.877 277.461C354.246 277.354 355.507 276.853 355.86 277.077C356.147 277.259 356.235 278.346 356.378 278.715C356.631 279.366 356.969 279.971 357.209 280.63Z" fill="#A1616A"/>
<path d="M314.228 208.568C319.019 208.568 322.903 204.258 322.903 198.942C322.903 193.625 319.019 189.315 314.228 189.315C309.437 189.315 305.553 193.625 305.553 198.942C305.553 204.258 309.437 208.568 314.228 208.568Z" fill="#A1616A"/>
<path d="M322.599 206.011C322.597 206.645 322.643 207.277 322.733 207.903C322.856 208.535 323.03 209.154 323.253 209.752C323.551 210.723 323.972 211.643 324.502 212.483C325.041 213.328 325.847 213.914 326.758 214.122C320.664 217.306 314.159 219.402 307.48 220.333C308.533 219.553 309.408 218.511 310.038 217.289C310.372 216.505 310.6 215.67 310.715 214.811C311.284 211.218 310.995 207.521 309.877 204.091C309.767 203.753 309.658 203.338 309.868 203.064C309.957 202.963 310.065 202.884 310.184 202.834C312.832 201.585 315.692 200.99 318.566 201.092C319.301 201.097 320.035 201.134 320.767 201.193C321.161 201.224 322.032 201.132 322.345 201.454C322.719 201.838 322.531 203.029 322.543 203.55L322.599 206.011Z" fill="#A1616A"/>
<path d="M326.71 213.683C324.009 209.874 319.297 208.581 315.288 210.551C311.041 212.782 308.95 218.14 305.215 221.291C304.365 221.99 303.46 222.604 302.51 223.125C301.949 223.466 301.351 223.726 300.73 223.9C300.032 224.069 299.303 224.045 298.608 224.23C297.283 224.658 296.155 225.621 295.45 226.927C295.1 227.61 294.712 228.268 294.289 228.898C293.899 229.408 293.414 229.82 293.001 230.308C291.516 232.065 291.112 234.587 290.774 236.957C289.612 238.304 288.343 239.535 286.984 240.636C286.557 240.997 286.082 241.286 285.577 241.493C284.27 241.959 282.829 241.366 281.715 240.48C280.601 239.595 279.694 238.428 278.596 237.519C277.587 239.106 276.533 240.699 275.457 242.233C275.295 242.525 275.048 242.748 274.756 242.866C274.554 243.613 275.038 244.388 275.401 245.058L277.346 248.656C277.989 249.966 278.778 251.183 279.695 252.278C280.624 253.379 281.894 254.058 283.255 254.183C284.114 254.175 284.965 253.996 285.766 253.654C289.474 252.282 292.878 250.092 296.405 248.23C297.043 247.829 297.759 247.598 298.494 247.556C299.249 247.534 299.925 248.069 300.145 248.864C300.55 251.112 300.951 253.351 301.508 255.56C302.032 257.642 302.519 259.735 302.969 261.839C303.27 263.127 303.484 264.437 303.611 265.759C303.669 266.509 303.676 267.264 303.682 268.017L303.757 277.12C303.765 278.1 303.257 278.712 302.867 279.592C302.268 280.959 302.178 282.529 302.615 283.968C302.835 284.678 303.178 285.334 303.421 286.034C304.009 287.728 303.986 289.594 303.956 291.407L303.886 295.561C303.868 295.733 303.896 295.907 303.967 296.061C304.197 296.457 304.752 296.225 305.104 295.957L306.869 294.611C309.23 294.969 311.616 295.096 313.998 294.99C320.771 294.882 327.547 295.179 334.305 295.7C336.56 295.873 338.891 296.062 341.022 295.234C342.104 294.814 343.1 294.142 344.206 293.805C344.662 293.727 345.095 293.531 345.469 293.233C346.087 292.603 345.923 291.498 345.671 290.613C345.45 289.839 345.2 289.076 344.919 288.325C344.63 287.634 344.395 286.918 344.215 286.183C343.877 284.526 344.206 282.612 343.269 281.262C341.171 278.242 342.656 273.595 341.775 269.919C341.49 268.73 341.069 267.583 340.802 266.388C340.635 265.638 340.529 264.874 340.423 264.11C340.147 262.459 340.01 260.783 340.014 259.104C340.039 258.264 340.135 257.429 340.231 256.595L340.898 250.804C341.731 252.516 342.31 254.364 342.613 256.278C343.22 259.137 343.967 261.957 344.851 264.726C345.353 266.396 345.856 268.067 346.399 269.722C346.743 270.663 347.007 271.638 347.19 272.633C347.31 273.436 347.313 274.254 347.398 275.062C347.58 276.794 348.131 278.455 349.006 279.91C349.167 280.247 349.435 280.509 349.758 280.645C349.977 280.69 350.201 280.68 350.416 280.616C352.771 280.104 355.051 279.236 357.191 278.036C357.646 277.829 358.042 277.489 358.335 277.053C358.911 276.023 358.267 274.735 357.987 273.566C357.687 272.312 357.757 270.803 356.86 269.963C353.735 267.036 355.286 261.095 353.722 256.921C353.448 256.188 353.128 255.475 352.891 254.726C352.71 254.154 352.579 253.565 352.447 252.976C351.355 248.114 350.187 243.274 348.941 238.455C347.65 233.46 347.789 228.256 346.163 223.38C345.858 222.358 345.459 221.372 344.973 220.439C344.423 219.464 343.688 218.631 342.818 217.997C340.459 216.28 338.078 214.818 335.308 214.196C332.537 213.573 329.538 213.669 326.71 213.683Z" fill="#D0CDE1"/>
<path d="M306.13 201.218C304.926 200.502 305.243 198.559 305.038 197.067C304.617 193.997 301.472 192.176 300.733 189.179C301.582 189.294 302.442 189.16 303.229 188.789C303.38 187.795 303.202 186.773 302.726 185.911C305.313 184.752 307.406 182.477 310.033 181.433C313.336 180.119 317.015 180.925 320.347 182.147C322.009 182.756 323.74 183.547 324.745 185.13C325.849 186.869 325.832 189.157 325.773 191.278C325.68 194.606 325.561 198.053 324.218 201.034C322.508 204.829 317.666 208.345 313.666 207.317C312.003 206.889 311.513 205.737 310.812 204.142C310.375 203.15 310.211 201.998 309.229 201.481C308.268 200.977 307.105 201.797 306.13 201.218Z" fill="#1D1F1F"/>
<g opacity="0.1">
<path d="M342.771 271.981C342.782 272.247 342.788 272.515 342.791 272.784C342.779 272.519 342.773 272.251 342.771 271.981Z" fill="#0C190E"/>
<path d="M304.132 281.908C304.72 283.613 304.697 285.49 304.667 287.315C304.659 287.791 304.651 288.268 304.643 288.744C304.605 287.76 304.433 286.788 304.132 285.861C303.889 285.156 303.546 284.496 303.327 283.781C302.95 282.532 302.964 281.179 303.366 279.94C303.585 280.612 303.902 281.241 304.132 281.908Z" fill="#0C190E"/>
</g>
<g opacity="0.1">
<path d="M303.126 187.167L303.118 187.171C303.045 186.546 302.894 185.947 302.673 185.405C302.81 185.322 302.945 185.233 303.079 185.141C303.185 185.805 303.201 186.494 303.126 187.167Z" fill="#0C190E"/>
</g>
<path d="M23.1334 167.923L21.0368 165.801C13.5915 158.131 8.67626 153.153 8.67626 146.952C8.639 144.568 9.46318 142.269 10.9611 140.578C12.459 138.887 14.503 137.948 16.6277 137.976C19.1396 137.991 21.5186 139.244 23.1334 141.403C24.7481 139.244 27.1272 137.991 29.6391 137.976C31.7637 137.948 33.8078 138.887 35.3057 140.578C36.8036 142.269 37.6278 144.568 37.5905 146.952C37.5905 153.153 32.6751 158.131 25.2299 165.801L23.1334 167.923Z" fill="#FF6584"/>
<path fill-rule="evenodd" clip-rule="evenodd" d="M26.989 162.576L24.8924 160.453C17.4471 152.784 12.5319 147.805 12.5319 141.604C12.4946 139.22 13.3188 136.921 14.8167 135.23C16.3146 133.539 18.3586 132.601 20.4833 132.628C22.9952 132.643 25.3742 133.896 26.989 136.055C28.6037 133.896 30.9827 132.643 33.4947 132.628C35.6193 132.601 37.6634 133.539 39.1613 135.23C40.6592 136.921 41.4833 139.22 41.4461 141.604C41.4461 147.805 36.5307 152.784 29.0855 160.453L26.989 162.576Z" stroke="#03222C" stroke-width="2"/>
</svg>
