<svg width="416" height="335" viewBox="0 0 416 335" fill="none" xmlns="http://www.w3.org/2000/svg">
<path d="M156.013 325.741C230.13 325.741 290.213 256.784 290.213 171.722C290.213 86.6591 230.13 17.7024 156.013 17.7024C81.8965 17.7024 21.8131 86.6591 21.8131 171.722C21.8131 256.784 81.8965 325.741 156.013 325.741Z" fill="#F2F2F2"/>
<path d="M177.549 195.206C147.999 247.484 156.096 313.975 156.096 313.975C156.096 313.975 212.102 295.707 241.651 243.429C271.201 191.151 263.104 124.66 263.104 124.66C263.104 124.66 207.098 142.928 177.549 195.206Z" fill="#28B758"/>
<path d="M156.005 312.905C156.005 312.905 155.281 312.773 153.95 312.466C152.887 312.219 151.425 311.868 149.639 311.384C133.674 307.084 91.2289 292.55 63.4788 254.336C28.747 206.486 30.2095 139.634 30.2095 139.634C30.2095 139.634 83.3157 149.491 118.309 192.461C119.826 194.308 121.301 196.222 122.735 198.203C152.957 239.837 155.774 295.856 155.997 309.705C156.028 311.78 156.005 312.905 156.005 312.905Z" fill="#222F65"/>
<path fill-rule="evenodd" clip-rule="evenodd" d="M134.478 195.206C164.027 247.484 155.93 313.975 155.93 313.975C155.93 313.975 99.9247 295.707 70.3752 243.429C40.8257 191.151 48.9223 124.66 48.9223 124.66C48.9223 124.66 104.928 142.928 134.478 195.206Z" stroke="#28B758" stroke-width="2"/>
<path opacity="0.1" d="M156.013 310.826C155.23 311.912 154.54 312.839 153.972 313.598C152.713 315.249 152 316.114 152 316.114C152 316.114 151.133 314.86 149.675 312.512C141.671 299.676 115.925 254.035 117.912 201.314C118.02 198.551 118.196 195.817 118.442 193.113C119.954 194.967 121.425 196.888 122.854 198.877C152.982 240.678 155.791 296.922 156.013 310.826Z" fill="black"/>
<path d="M200.638 205.179C198.281 267.498 157.804 316.114 157.804 316.114C157.804 316.114 121.148 263.689 123.504 201.369C125.86 139.049 166.337 90.4334 166.337 90.4334C166.337 90.4334 202.994 142.859 200.638 205.179Z" fill="#222F65"/>
<path d="M157.877 313.975L166.265 92.5729" stroke="#28B758" stroke-width="2"/>
<path d="M207.736 334.297C322.257 334.297 415.094 327.592 415.094 319.322C415.094 311.053 322.257 304.348 207.736 304.348C93.2156 304.348 0.378418 311.053 0.378418 319.322C0.378418 327.592 93.2156 334.297 207.736 334.297Z" fill="#28B758"/>
<path d="M34.8595 313.975V254.079V313.975Z" fill="#28B758"/>
<path d="M34.8595 313.975V254.079" stroke="#28B758" stroke-width="2"/>
<path d="M34.8604 262.635C38.978 262.635 42.3159 258.804 42.3159 254.078C42.3159 249.353 38.978 245.522 34.8604 245.522C30.7428 245.522 27.4048 249.353 27.4048 254.078C27.4048 258.804 30.7428 262.635 34.8604 262.635Z" fill="#28B758"/>
<path d="M34.8604 291.514C34.8604 291.514 33.8201 265.169 12.4937 268.231L34.8604 291.514Z" fill="#28B758"/>
<path d="M212.861 216.644V49.7896V216.644Z" fill="#28B758"/>
<path d="M212.861 216.644V49.7896" stroke="#28B758" stroke-width="2"/>
<path d="M212.862 62.6245C218.523 62.6245 223.113 57.3569 223.113 50.8591C223.113 44.3613 218.523 39.0938 212.862 39.0938C207.2 39.0938 202.61 44.3613 202.61 50.8591C202.61 57.3569 207.2 62.6245 212.862 62.6245Z" fill="#28B758"/>
<path d="M212.862 97.9207C212.862 97.9207 211.431 61.9953 182.108 66.1712L212.862 97.9207Z" fill="#28B758"/>
<path d="M334.281 124.66L325.542 143.522C325.542 143.522 262.355 157.379 270.422 178.936C278.488 200.492 287.563 232.057 292.268 231.287C296.974 230.517 322.853 213.58 323.862 208.576C324.87 203.572 300.671 180.091 300.671 180.091L340.667 171.237C340.667 171.237 346.38 202.032 338.986 223.203C331.592 244.375 327.223 301.73 332.264 302.5C337.306 303.27 350.077 307.889 355.791 303.655C361.505 299.42 364.194 206.651 364.194 206.651C364.194 206.651 376.293 145.831 368.899 138.903C361.505 131.974 334.281 124.66 334.281 124.66Z" fill="#0E5202"/>
<path d="M347.94 293.928C347.94 293.928 340.131 289.196 338.487 292.981C338.487 292.981 339.72 304.338 334.789 305.757C329.857 307.177 327.802 317.113 334.789 318.06C341.775 319.006 346.296 316.167 348.762 316.167C351.227 316.167 348.762 306.23 348.762 306.23L347.94 293.928Z" fill="#2F2E41"/>
<path d="M310.683 216.467C310.683 216.467 302.175 213.729 301.261 217.842C301.261 217.842 304.549 228.681 299.984 231.275C295.419 233.868 295.23 244.116 302.24 243.342C309.249 242.568 313.152 238.682 315.564 238.081C317.977 237.48 313.743 228.334 313.743 228.334L310.683 216.467Z" fill="#2F2E41"/>
<path d="M353.022 58.1952C353.022 58.1952 353.354 72.5596 351.03 73.7242C348.706 74.8889 363.977 81.877 363.977 81.877L366.633 76.4418C366.633 76.4418 363.645 57.0305 364.309 55.4776C364.973 53.9246 353.022 58.1952 353.022 58.1952Z" fill="#9F616A"/>
<path d="M358.245 61.5551C369.568 61.5551 378.748 51.02 378.748 38.0244C378.748 25.0287 369.568 14.4937 358.245 14.4937C346.922 14.4937 337.742 25.0287 337.742 38.0244C337.742 51.02 346.922 61.5551 358.245 61.5551Z" fill="#2F2E41"/>
<path d="M360.109 25.1894C364.741 25.1894 368.496 20.8796 368.496 15.5632C368.496 10.2468 364.741 5.93701 360.109 5.93701C355.477 5.93701 351.721 10.2468 351.721 15.5632C351.721 20.8796 355.477 25.1894 360.109 25.1894Z" fill="#2F2E41"/>
<path d="M348.82 10.2152C348.82 5.28703 352.084 1.15484 356.381 0.641038C356.089 0.606448 355.796 0.589075 355.502 0.588989C350.841 0.588989 347.062 4.89878 347.062 10.2152C347.062 15.5316 350.841 19.8414 355.502 19.8414C355.796 19.8413 356.089 19.8239 356.381 19.7893C352.084 19.2755 348.82 15.1433 348.82 10.2152Z" fill="#2F2E41"/>
<path d="M357.313 65.8333C365.034 65.8333 371.292 58.6504 371.292 49.7897C371.292 40.9291 365.034 33.7461 357.313 33.7461C349.593 33.7461 343.334 40.9291 343.334 49.7897C343.334 58.6504 349.593 65.8333 357.313 65.8333Z" fill="#9F616A"/>
<path d="M367.798 70.9771C367.798 70.9771 355.726 75.1916 349.689 70.9771C343.653 66.7627 329.233 79.023 326.886 84.3869C324.538 89.7507 335.605 95.1146 335.605 95.1146C335.605 95.1146 332.445 105.473 333.09 110.632C333.76 115.995 332.587 126.915 332.587 126.915C332.587 126.915 362.213 149.215 368.804 139.175C369.81 137.643 378.194 101.628 378.194 101.628L389.931 88.2182C389.931 88.2182 382.554 75.9579 378.194 74.8085C373.834 73.6591 367.798 70.9771 367.798 70.9771Z" fill="#D0CDE1"/>
<path d="M286.426 149.26C286.426 149.26 263.824 162.992 268.478 166.915C273.131 170.838 292.077 151.614 292.077 151.614L286.426 149.26Z" fill="#9F616A"/>
<path d="M375.88 139.568C375.88 139.568 365.632 131.315 363.982 135.442C362.332 139.568 375.202 148.861 377.912 145.225C380.621 141.589 375.88 139.568 375.88 139.568Z" fill="#9F616A"/>
<path d="M384.124 82.9467L390.1 87.2125C390.1 87.2125 410.354 119.788 403.382 127.156C396.409 134.524 378.479 149.26 378.479 149.26C378.479 149.26 372.503 139.178 374.495 138.79C376.487 138.402 392.424 122.89 392.424 122.89L378.479 92.6417L384.124 82.9467Z" fill="#D0CDE1"/>
<path d="M330.454 81.877L326.105 83.8135L314.73 107.439L284.621 149.654C284.621 149.654 288.636 157.013 291.981 155.464C295.327 153.914 320.418 121.381 320.418 121.381L336.81 91.9468L330.454 81.877Z" fill="#D0CDE1"/>
<path d="M358.711 40.1635C366.689 40.1635 373.156 35.8537 373.156 30.5373C373.156 25.2209 366.689 20.9111 358.711 20.9111C350.733 20.9111 344.266 25.2209 344.266 30.5373C344.266 35.8537 350.733 40.1635 358.711 40.1635Z" fill="#2F2E41"/>
<rect x="263.187" y="239.104" width="66.168" height="75.9398" fill="#222F65"/>
<path fill-rule="evenodd" clip-rule="evenodd" d="M308.728 291.952C315.656 291.952 320.035 285.19 320.035 274.46C320.035 259.864 310.293 249.801 296.234 249.801C281.607 249.801 271.574 261.124 271.574 277.617C271.574 294.515 281.405 305.403 296.764 305.418C299.425 305.433 302.08 305.103 304.677 304.433C305.73 304.141 306.388 302.938 306.158 301.722C305.929 300.507 304.896 299.724 303.831 299.959C301.565 300.417 299.267 300.64 296.966 300.625C284.333 300.625 276.218 291.734 276.218 277.805C276.218 264.179 284.421 254.55 295.931 254.55C307.567 254.55 315.442 262.615 315.442 274.677C315.442 282.236 313.22 287.101 309.725 287.101C307.706 287.101 306.582 285.696 306.582 283.365V264.643H301.547V268.668H301.042C299.881 265.729 297.243 263.933 294.139 263.933C288.094 263.933 283.955 269.566 283.955 277.66C283.955 286.087 288.069 291.749 294.227 291.749C297.685 291.749 300.26 289.91 301.509 286.551H302.014C302.481 289.78 305.181 291.952 308.728 291.952ZM295.161 286.391C291.59 286.391 289.394 283.147 289.394 277.79C289.394 272.418 291.552 269.261 295.224 269.261C298.922 269.261 301.295 272.519 301.295 277.79C301.295 283.061 298.922 286.391 295.161 286.391Z" fill="white"/>
</svg>
