<svg width="456" height="339" viewBox="0 0 456 339" fill="none" xmlns="http://www.w3.org/2000/svg">
<path d="M94.4013 147.897C71.3755 148.016 52.6333 148.397 52.6333 148.397C52.6333 148.397 74.9113 115.341 94.3177 127.588C113.724 139.835 136.017 147.967 136.017 147.967C136.017 147.967 117.427 147.778 94.4013 147.897Z" fill="#F2F2F2"/>
<path d="M352.057 158.023C354.674 158.023 356.795 155.629 356.795 152.675C356.795 149.722 354.674 147.327 352.057 147.327C349.441 147.327 347.32 149.722 347.32 152.675C347.32 155.629 349.441 158.023 352.057 158.023Z" fill="white"/>
<path d="M316.988 237.508L352.983 190.852L354.094 191.944L318.099 238.6L316.988 237.508Z" fill="#302B70"/>
<path d="M353.953 199.737C358.139 199.737 361.533 195.906 361.533 191.18C361.533 186.455 358.139 182.624 353.953 182.624C349.766 182.624 346.372 186.455 346.372 191.18C346.372 195.906 349.766 199.737 353.953 199.737Z" fill="#302B70"/>
<path d="M331.482 220.059C331.482 220.059 346.036 199.125 327.421 184.763L331.482 220.059Z" fill="#302B70"/>
<path d="M90.1353 256.857C116.807 312.68 173.414 336.643 173.414 336.643C173.414 336.643 186.777 270.1 160.106 214.278C133.434 158.456 76.8271 134.493 76.8271 134.493C76.8271 134.493 63.4636 201.035 90.1353 256.857Z" fill="#302B70"/>
<path d="M108.18 238.734C156.324 271.523 174.867 336.651 174.867 336.651C174.867 336.651 115.35 348.618 67.2054 315.829C19.0605 283.04 0.518372 217.911 0.518372 217.911C0.518372 217.911 60.0346 205.944 108.18 238.734Z" fill="#173039"/>
<path d="M299.179 239.023C250.772 271.364 231.719 336.375 231.719 336.375C231.719 336.375 291.149 348.951 339.555 316.61C387.962 284.268 407.015 219.257 407.015 219.257C407.015 219.257 347.586 206.681 299.179 239.023Z" fill="#302B70"/>
<path d="M316.751 258.8C289.647 314.327 232.863 337.713 232.863 337.713C232.863 337.713 220.024 271.072 247.128 215.545C274.232 160.018 331.015 136.632 331.015 136.632C331.015 136.632 343.855 203.273 316.751 258.8Z" fill="#173039"/>
<path d="M218.341 106.727C212.642 100.905 211.843 91.1225 216.505 84.2229C216.208 84.538 215.917 84.8652 215.638 85.213C210.163 92.0515 210.634 102.607 216.689 108.791C222.744 114.974 232.092 114.442 237.567 107.604C237.845 107.256 238.104 106.896 238.352 106.53C232.742 112.461 224.042 112.546 218.341 106.727Z" fill="#2F2E41"/>
<path d="M204.714 118.449C221.722 118.449 235.509 102.886 235.509 83.6878C235.509 64.4897 221.722 48.9266 204.714 48.9266C187.707 48.9266 173.919 64.4897 173.919 83.6878C173.919 102.886 187.707 118.449 204.714 118.449Z" fill="#2F2E41"/>
<path d="M195.938 128.109L196.861 125.429L180.056 141.301L159.742 154.082C159.742 154.082 149.4 109.557 148.661 108.732C147.922 107.908 134.626 76.5751 128.716 91.4168C122.807 106.258 140.166 114.916 140.166 114.916C140.166 114.916 140.72 169.13 158.449 168.717C176.178 168.305 198.154 150.371 198.523 148.722C198.893 147.073 195.938 128.109 195.938 128.109Z" fill="#FFB8B8"/>
<path d="M200.924 119.519C211.129 119.519 219.401 110.181 219.401 98.6619C219.401 87.143 211.129 77.8052 200.924 77.8052C190.719 77.8052 182.447 87.143 182.447 98.6619C182.447 110.181 190.719 119.519 200.924 119.519Z" fill="#FFB8B8"/>
<path d="M204.126 113.904C204.126 113.904 208.924 120.929 207.448 121.755C205.971 122.582 197.482 122.995 192.315 130.02C187.148 137.045 198.59 154.815 198.59 154.815L242.142 122.168L224.426 115.557C224.426 115.557 212.246 108.118 212.615 100.266L204.126 113.904Z" fill="#FFB8B8"/>
<path d="M262.988 338.782H214.067C211.295 315.96 210.014 295.045 210.014 295.045C210.014 295.045 209.299 316.083 207.397 338.782H144.545C153.454 271.569 195.692 198.684 195.692 198.684C195.692 198.684 196.059 188.755 197.162 187.1C198.264 185.449 190.919 185.036 187.612 172.629C185.596 165.055 187.408 160.099 189.131 157.392C189.723 156.416 190.451 155.555 191.287 154.841C191.287 154.841 192.022 146.16 191.287 144.918C191.192 144.756 191.917 144.185 193.258 143.318C194.376 142.591 195.92 141.657 197.768 140.583C208.35 134.402 228.836 123.467 235.853 119.741C237.393 118.919 238.287 118.449 238.287 118.449L250.771 123.411C260.684 127.13 260.684 150.707 260.684 150.707L260.123 151.67L245.14 177.232L236.449 192.067C238.654 193.717 234.249 204.059 234.249 204.059C234.249 204.059 240.526 214.217 245.632 229.723C248.518 238.353 250.487 247.337 251.497 256.488C252.14 262.419 252.266 268.407 251.874 274.366C250.513 294.29 256.562 318.505 262.988 338.782Z" fill="#002C14"/>
<path d="M250.624 125.331C249.809 124.808 248.835 124.722 247.96 125.096C247.085 125.469 246.399 126.265 246.085 127.269C244.992 130.7 243.884 137.854 244.279 152.726C245.005 180.079 245.368 198.728 245.368 198.728V240.17C245.368 240.17 229.399 279.955 238.109 279.955C246.819 279.955 252.989 248.459 252.989 248.459C252.989 248.459 260.973 200.8 258.433 192.511C258.433 192.511 265.596 135.252 250.624 125.331Z" fill="#FFB8B8"/>
<path d="M199.029 92.7791C207.664 92.7791 214.664 87.2721 214.664 80.479C214.664 73.6858 207.664 68.1789 199.029 68.1789C190.394 68.1789 183.395 73.6858 183.395 80.479C183.395 87.2721 190.394 92.7791 199.029 92.7791Z" fill="#2F2E41"/>
<path d="M224.139 70.3181C232.512 70.3181 239.3 62.6563 239.3 53.2049C239.3 43.7536 232.512 36.0917 224.139 36.0917C215.766 36.0917 208.978 43.7536 208.978 53.2049C208.978 62.6563 215.766 70.3181 224.139 70.3181Z" fill="#2F2E41"/>
<path d="M234.562 65.3817C226.68 65.3805 220.114 58.6922 219.458 49.9963C219.423 50.4579 219.401 50.9235 219.401 51.395C219.401 60.6646 226.189 68.1791 234.562 68.1791C242.935 68.1791 249.723 60.6646 249.723 51.395C249.723 50.9235 249.701 50.458 249.666 49.9963C249.01 58.6922 242.444 65.3805 234.562 65.3817Z" fill="#2F2E41"/>
<path d="M218.823 94.9383C219.513 94.7522 219.767 93.1575 219.39 91.3764C219.013 89.5954 218.148 88.3024 217.458 88.4885C216.767 88.6746 216.513 90.2693 216.89 92.0504C217.267 93.8315 218.132 95.1244 218.823 94.9383Z" fill="#FFB8B8"/>
<path d="M218.454 94.9453C218.977 94.9453 219.401 94.4604 219.401 93.8623C219.401 93.2642 218.977 92.7793 218.454 92.7793C217.93 92.7793 217.506 93.2642 217.506 93.8623C217.506 94.4604 217.93 94.9453 218.454 94.9453Z" fill="#F2F2F2"/>
<path fill-rule="evenodd" clip-rule="evenodd" d="M38.4202 158.559C38.4202 162.398 41.1777 165.511 44.5792 165.511C47.9792 165.507 50.7344 162.396 50.7382 158.559C50.7382 154.719 47.9808 151.606 44.5792 151.606C41.1777 151.606 38.4202 154.719 38.4202 158.559ZM39.4467 158.572C39.4467 155.372 41.7446 152.779 44.5792 152.779C47.4125 152.782 49.7085 155.374 49.7117 158.572C49.7117 161.772 47.4138 164.366 44.5792 164.366C41.7446 164.366 39.4467 161.772 39.4467 158.572Z" fill="#302B70"/>
<path fill-rule="evenodd" clip-rule="evenodd" d="M288.572 116.31H301.838V101.336H288.572V116.31ZM300.817 115.171H289.592V102.501H300.817V115.171Z" fill="#302B70"/>
<path d="M413.724 193.889C390.698 194.008 371.956 194.389 371.956 194.389C371.956 194.389 394.234 161.333 413.64 173.58C433.047 185.827 455.34 193.959 455.34 193.959C455.34 193.959 436.75 193.77 413.724 193.889Z" fill="#F2F2F2"/>
<path d="M342.658 81.5837C319.632 81.7026 300.89 82.0837 300.89 82.0837C300.89 82.0837 323.168 49.0275 342.574 61.2746C361.981 73.5217 384.274 81.6532 384.274 81.6532C384.274 81.6532 365.684 81.4648 342.658 81.5837Z" fill="#F2F2F2"/>
<path d="M124.986 96.1302L71.8081 65.1426C68.1768 63.0265 66.7467 57.9751 68.614 53.8599L81.1419 26.2507C81.5096 25.4405 82.155 24.8371 82.9269 24.582L124.841 10.7325C128.321 9.5827 131.986 11.7187 133.185 15.5951L146.957 60.1118C147.652 62.3592 147.501 64.8317 146.54 66.9497L134.942 92.5105C134.045 94.4867 132.492 95.9783 130.625 96.6571C128.758 97.3359 126.73 97.1464 124.986 96.1302Z" fill="#F2F2F2"/>
<path opacity="0.1" d="M126.87 85.9083L73.295 59.9807C71.5687 58.9744 73.1874 60.5211 74.075 58.5642L80.8098 27.5351L146.44 65.7911L129.848 89.0474C128.96 91.0042 128.597 86.9146 126.87 85.9083Z" fill="black"/>
<path d="M82.3373 67.9001C78.4273 65.6306 76.7769 60.4556 78.6511 56.3414L96.999 16.0643C98.8732 11.9501 103.562 10.4547 107.472 12.7243L142.193 32.8777C146.104 35.1472 147.754 40.3223 145.88 44.4365L127.532 84.7135C125.658 88.8277 120.968 90.3231 117.058 88.0536L82.3373 67.9001Z" fill="#173039"/>
<path opacity="0.1" d="M137.912 61.3183L124.133 91.7098L75.3744 63.274L89.1535 32.883L107.474 60.465L137.912 61.3183Z" fill="black"/>
<path d="M106.882 62.464L83.2274 27.1097C82.93 26.6651 82.4504 26.4241 81.9579 26.4715C81.4654 26.5189 81.0292 26.8482 80.8032 27.3431L67.3428 56.8159C66.799 58.0067 66.6976 59.392 67.0609 60.667C67.4242 61.9421 68.2225 63.0024 69.2801 63.6147L127.926 97.5682C128.983 98.1805 130.214 98.2947 131.346 97.8857C132.478 97.4766 133.42 96.5778 133.964 95.387L147.194 66.4192C147.47 65.8152 147.45 65.094 147.142 64.5099C146.835 63.9259 146.282 63.5611 145.679 63.5444L106.882 62.464Z" fill="#F2F2F2"/>
<path d="M102.296 16.125L116.006 24.0823L115.002 26.2854L101.293 18.3281L102.296 16.125Z" fill="#F2F2F2"/>
<path d="M97.5707 23.4329L138.166 46.9962L137.598 48.2431L97.0027 24.6798L97.5707 23.4329Z" fill="#F2F2F2"/>
<path d="M95.6536 27.6412L136.249 51.2045L135.681 52.4514L95.0855 28.8881L95.6536 27.6412Z" fill="#F2F2F2"/>
<path d="M93.7365 31.8495L134.332 55.4128L133.764 56.6597L93.1685 33.0964L93.7365 31.8495Z" fill="#F2F2F2"/>
<path d="M107.66 13.932C109.271 10.3962 108.042 6.0587 104.915 4.24387C101.789 2.42905 97.9483 3.82413 96.3376 7.35989C94.7269 10.8956 95.9559 15.2331 99.0825 17.048C102.209 18.8628 106.05 17.4677 107.66 13.932Z" fill="white"/>
<path fill-rule="evenodd" clip-rule="evenodd" d="M95.1662 6.52028C97.0812 2.31856 101.653 0.663878 105.377 2.82445C109.091 4.99469 110.555 10.1415 108.653 14.3444C106.738 18.5462 102.166 20.2008 98.442 18.0403C94.7178 15.8797 93.2511 10.722 95.1662 6.52028ZM96.9976 7.77114L98.6764 13.6752L108.103 10.2692L107.632 8.61315L99.6749 11.4934L98.4654 7.23987L96.9976 7.77114Z" fill="#00432A"/>
</svg>
